<?xml version="1.0" encoding="UTF-8"?><svg id="Layer_1" xmlns="http://www.w3.org/2000/svg" viewBox="0 0 1800 1800"><defs><style>.cls-1{fill:#fff;}.cls-2{fill:#e6332a;}.cls-3{fill:#e30613;}.cls-4{fill:#f39200;}</style></defs><circle class="cls-1" cx="900" cy="900" r="814.96063"/><path d="M1632.13,653.06494c-.34998.97998-.77002,1.96997-1.27002,2.95996-.79993.98999-1.69006,1.88-2.68005,2.67993l-306.35986,306.36005c-2.09009,2.08002-4.17004,3.87-7.45007,6.84998-76.58997-274.29999-152.29993-546.8399-229.18005-822.01996,256.91003,63.21997,463.26001,254.97998,546.94006,503.17004Z"/><path class="cls-3" d="M1672.43994,900.00488c0,198.04999-74.53003,378.69-197.08997,515.40002-.71997.16998-1.43005.25-2.14001.25-.80005.19995-1.58997.19995-2.38989,0-141.11011-38.70001-282.30005-77.60004-423.61011-116.69l598.81006-600.00006c17.22998,64.1001,26.41992,131.50006,26.41992,201.04004Z"/><path d="M753.18308,503.44026c-.10846.17933-.28848.31014-.43569.45742l-4.64491,4.64724-.60331.60361-.6355.63581-.66745.66779-.69917.69953-.73067.73103-.76193.76231-.79296.79336-.82376.82417-.85432.85475-.88466.8851-.91476.91522-.94463.94511-.97428.97476-1.00369,1.00419-1.03286,1.03338-1.06181,1.06234-1.09053,1.09107-1.11901,1.11957-1.14726,1.14784-1.17528,1.17587-1.20307,1.20368-1.23063,1.23125-1.25796,1.25859-1.28505,1.2857-1.31192,1.31258-1.33855,1.33922-1.36495,1.36564-1.39112,1.39182-1.41706,1.41777-1.44277,1.44349-1.46824,1.46898-1.49349,1.49423-1.5185,1.51926-1.54328,1.54405-1.56783,1.56862-1.59215,1.59295-1.61624,1.61705-1.64009,1.64091-1.66372,1.66455-1.68711,1.68795-1.71027,1.71113-1.7332,1.73407-1.7559,1.75678-1.77837,1.77926-1.8006,1.8015-1.82261,1.82352-1.84438,1.8453-1.86592,1.86685-1.88723,1.88818-1.90831,1.90926-1.92916,1.93012-1.94977,1.95075-1.97016,1.97114-1.99031,1.99131-2.01023,2.01124-2.02992,2.03094-2.04938,2.05041-2.06861,2.06964-2.0876,2.08865-2.10637,2.10742-2.1249,2.12596-2.1432,2.14427-2.16127,2.16235-2.17911,2.1802-2.19672,2.19782-2.21409,2.2152-2.23124,2.23236-2.24815,2.24928-2.26483,2.26597-2.28128,2.28243-2.2975,2.29865-2.31349,2.31465-2.32924,2.33041-2.34477,2.34594-2.36006,2.36124-2.37512,2.37631-2.38995,2.39115-2.40455,2.40576-2.41892,2.42013-2.43306,2.43428-2.44696,2.44819-2.46063,2.46187-2.47408,2.47532-2.48729,2.48853-2.50027,2.50152-2.51301,2.51427-2.52553,2.52679-2.53781,2.53909-2.54987,2.55114-2.56169,2.56297-2.57328,2.57457-2.58464,2.58593-2.59577,2.59707-2.60666,2.60797-2.61733,2.61864-2.62776,2.62908-2.63796,2.63928-2.64793,2.64926-2.65767,2.659-2.66718,2.66852-2.67646,2.6778-2.6855,2.68685-2.69431,2.69566-2.7029,2.70425-2.71125,2.7126-2.71937,2.72073-2.72725,2.72862-2.73491,2.73628-2.74233,2.74371-2.74953,2.75091-2.75649,2.75787-2.76322,2.76461-2.76972,2.77111-2.77599,2.77738-2.78202,2.78342-2.78783,2.78923-2.7934,2.7948-2.79874,2.80015-2.80386,2.80526-2.80873,2.81014-2.81338,2.81479-2.8178,2.81921-2.82198,2.8234-2.82594,2.82735-2.82966,2.83108-2.83315,2.83457-2.83641,2.83783-2.83944,2.84086-2.84223,2.84366-2.8448,2.84623-2.84713,2.84856-2.84924,2.85066-2.85111,2.85254-2.85275,2.85418-2.85415,2.85558-2.85533,2.85676-2.85628,2.85771-2.85699,2.85842-2.85747,2.8589-2.85772,2.85915-2.85774,2.85917-2.85753,2.85896-2.85709,2.85852-2.85641,2.85784-2.85551,2.85694-2.85437,2.8558-2.853,2.85443-2.8514,2.85283-2.84957,2.851-2.8475,2.84893-2.84521,2.84664-2.84268,2.84411-2.83993,2.84135-2.83694,2.83836-2.83372,2.83514-2.83027,2.83168-2.82658,2.828-2.82267,2.82408-2.81852,2.81993-2.81414,2.81555-2.80954,2.81094-2.80469,2.8061-2.79962,2.80103-2.79432,2.79572-2.78879,2.79018-2.78302,2.78441-2.77702,2.77841-2.77079,2.77218-2.76433,2.76572-2.75764,2.75902-2.75072,2.7521-2.74356,2.74494-2.73618,2.73755-2.72856,2.72993-2.72071,2.72208-2.71263,2.71399-2.70432,2.70568-2.69578,2.69713-2.687,2.68835-2.678,2.67934-2.66876,2.6701-2.65929,2.66062-2.64959,2.65092-2.63966,2.64098-2.6295,2.63082-2.6191,2.62042-2.60848,2.60978-2.59762,2.59892-2.58653,2.58783-2.57521,2.5765-2.56366,2.56495-2.55188,2.55316-2.53986,2.54114-2.52762,2.52888-2.51514,2.5164-2.50243,2.50369-2.48949,2.49074-2.47632,2.47756-2.46292,2.46415-2.44928,2.45051-2.43542,2.43664-2.42132,2.42253-2.40699,2.4082-2.39243,2.39363-2.37764,2.37883-2.36262,2.3638-2.34737,2.34854-2.33188,2.33305-2.31616,2.31732-2.30021,2.30137-2.28403,2.28518-2.26762,2.26876-2.25098,2.25211-2.23411,2.23523-2.217,2.21811-2.19966,2.20077-2.1821,2.18319-2.1643,2.16538-2.14627,2.14734-2.128,2.12907-2.10951,2.11057-2.09078,2.09183-2.07183,2.07287-2.05264,2.05367-2.03322,2.03424-2.01357,2.01458-1.99369,1.99468-1.97357,1.97456-1.95323,1.95421-1.93265,1.93362-1.91184,1.9128-1.8908,1.89175-1.86953,1.87047-1.84803,1.84895-1.8263,1.82721-1.80433,1.80523-1.78213,1.78303-1.75971,1.76059-1.73705,1.73792-1.71415,1.71501-1.69103,1.69188-1.66768,1.66851-1.64409,1.64492-1.62028,1.62109-1.59623,1.59703-1.57195,1.57274-1.54744,1.54821-1.5227,1.52346-1.49772,1.49847-1.47252,1.47326-1.44708,1.44781-1.42141,1.42213-1.39551,1.39621-1.36938,1.37007-1.34302,1.34369-1.31643,1.31709-1.2896,1.29025-1.26255,1.26318-1.23526,1.23588-1.20774,1.20834-1.17999,1.18058-1.15201,1.15258-1.12379,1.12436-1.09535,1.0959-1.06667,1.06721-1.03776,1.03828-1.00862,1.00913-.97925.97974-.94965.95013-.91982.92028-.88975.8902-.85946.85989-.82893.82935-.79817.79857-.76718.76756-.73596.73633-.7045.70486-.67282.67316-.6409.64123-.60876.60906-.57638.57667-.54377.54404-.51092.51118-.47785.47809-.44455.44477-.41101.41122-.37724.37743-.34324.34342-.30901.30917-.27455.27469-.23986.23998-.20493.20504-.16978.16986-.13439.13446-.09877.09882-.06292.06295-.02789.0279c-17.5-64.56-26.83002-132.45996-26.83002-202.54999,0-196.39001,73.28998-375.65991,194-511.94995.02893-.00939.07068.00499.09942.00856.07899.00981.15771.02913.23555.04531.12359.02568.24674.05352.36981.08155.16761.03818.33495.07754.50219.11729.21106.05017.42192.10116.63269.15253.25391.06189.50766.1244.76132.18726.29614.07339.59215.14728.88808.22149.33775.08469.67539.16981,1.01295.25522.37874.09582.75738.192,1.13596.28844.4191.10676.83812.21384,1.25708.32116.45885.11753.91762.23534,1.37634.35337.49796.12813.99586.25651,1.49371.38508.53646.13855,1.07286.27733,1.60921.41629.57433.1488,1.14861.29781,1.72284.44699.61158.15888,1.2231.31796,1.83459.4772.6482.1688,1.29635.33777,1.94446.50689.6842.17854,1.36835.35724,2.05246.53609.71957.18811,1.43909.37638,2.15859.56478.75431.19752,1.50859.39518,2.26284.59296.78844.20675,1.57684.41364,2.36521.62065.82193.21582,1.64384.43177,2.46571.64783.85481.22472,1.70958.44956,2.56433.6745.88705.23345,1.77408.46701,2.66108.70068.91868.24201,1.83732.48413,2.75595.72635.94967.2504,1.89932.50091,2.84894.75151.98005.25863,1.96007.51736,2.94006.77618,1.00979.26669,2.01956.53347,3.02931.80033,1.03892.27458,2.07781.54924,3.11668.82399,1.06741.2823,2.1348.56468,3.20217.84714,1.09529.28985,2.19055.57978,3.28579.86979,1.12253.29723,2.24504.59455,3.36754.89193,1.14915.30445,2.29829.60898,3.4474.91358,1.17515.3115,2.35028.62307,3.5254.93471,1.20052.31838,2.40103.63683,3.60151.95535,1.22527.32509,2.45052.65025,3.67575.97548,1.24939.33164,2.49876.66334,3.74812.99511,1.27289.33801,2.54576.67609,3.81861,1.01423,1.29576.34422,2.5915.68851,3.88723,1.03285,1.31801.35026,2.63599.70059,3.95397,1.05097,1.33963.35614,2.67924.71233,4.01883,1.06858,1.36062.36184,2.72123.72374,4.08182,1.08569,1.38099.36738,2.76197.73481,4.14294,1.1023,1.40074.37275,2.80146.74555,4.20217,1.1184,1.41986.37795,2.83971.75595,4.25954,1.134,1.43835.38298,2.8767.76602,4.31503,1.1491,1.45623.38785,2.91244.77574,4.36864,1.16369,1.47347.39255,2.94693.78514,4.42037,1.17778,1.49009.39707,2.98017.7942,4.47024,1.19136,1.50609.40144,3.01216.80292,4.51822,1.20445,1.52146.40563,3.0429.81131,4.56433,1.21702,1.5362.40966,3.07239.81936,4.60857,1.2291,1.55032.41351,3.10063.82707,4.65093,1.24067,1.56381.4172,3.12762.83445,4.69141,1.25174,1.57668.42073,3.15336.84149,4.73002,1.2623,1.58893.42408,3.17785.8482,4.76675,1.27236,1.60055.42727,3.20108.85457,4.80161,1.28192,1.61154.43029,3.22307.86061,4.83459,1.29097,1.62191.43314,3.24381.86631,4.8657,1.29952,1.63165.43582,3.2633.87168,4.89493,1.30757,1.64077.43834,3.28154.87671,4.92229,1.31511,1.64927.44068,3.29852.8814,4.94777,1.32215,1.65713.44286,3.31426.88576,4.97138,1.32869,1.66438.44487,3.32875.88978,4.99311,1.33472,1.671.44672,3.34198.89347,5.01296,1.34025,1.67699.44839,3.35397.89682,5.03094,1.34528,1.68236.4499,3.36471.89983,5.04704,1.3498,1.6871.45124,3.37419.90251,5.06127,1.35382,1.69122.45241,3.38243.90486,5.07363,1.35734,1.69471.45342,3.38941.90687,5.0841,1.36035,1.69758.45425,3.39515.90854,5.09271,1.36286,1.69982.45492,3.39963.90988,5.09943,1.36486,1.70144.45542,3.40286.91088,5.10428,1.36636,1.70243.45576,3.40485.91154,5.10726,1.36736,1.7028.45592,3.40558.91187,5.10836,1.36785,1.70254.45592,3.40507.91187,5.10759,1.36785,1.70165.45575,3.4033.91152,5.10494,1.36733,1.70014.45541,3.40028.91085,5.10041,1.36632,1.69801.4549,3.39601.90983,5.09401,1.3648,1.69525.45423,3.3905.90849,5.08573,1.36277,1.69187.45339,3.38373.9068,5.07558,1.36025,1.68786.45238,3.37571.90478,5.06355,1.35722,1.68322.4512,3.36644.90243,5.04965,1.35368,1.67797.44985,3.35592.89973,5.03387,1.34965,1.67208.44834,3.34415.89671,5.01622,1.34511,1.66557.44666,3.33113.89334,4.99669,1.34006,1.65844.44481,3.31686.88965,4.97528,1.33451,1.65068.44279,3.30134.88561,4.952,1.32846,1.64229.44061,3.28457.88124,4.92685,1.32191,1.63328.43825,3.26655.87654,4.89982,1.31485,1.62365.43573,3.24728.87149,4.87091,1.30729,1.61339.43304,3.22676.86612,4.84013,1.29922,1.6025.43019,3.20499.8604,4.80747,1.29065,1.59099.42716,3.18197.85436,4.77294,1.28158,1.57885.42397,3.1577.84797,4.73653,1.27201,1.56609.42061,3.13218.84125,4.69825,1.26193,1.55271.41708,3.1054.8342,4.65809,1.25134,1.53869.41339,3.07738.82681,4.61606,1.24026,1.52406.40952,3.04811.81908,4.57215,1.22867,1.5088.40549,3.01758.81102,4.52636,1.21657,1.49291.40129,2.98581.80262,4.4787,1.20398,1.4764.39693,2.95279.79388,4.42917,1.19088,1.45926.39239,2.91851.78481,4.37776,1.17727,1.4415.38769,2.88299.77541,4.32447,1.16317,1.42311.38282,2.84621.76567,4.26931,1.14856,1.4041.37778,2.80819.75559,4.21227,1.13344,1.38446.37257,2.76892.74518,4.15336,1.11782,1.3642.3672,2.72839.73443,4.09257,1.1017,1.34331.36165,2.68661.72335,4.02991,1.08508,1.3218.35594,2.64359.71193,3.96537,1.06795.63362.12672,1.26212.33996,1.88623.50809.61434.16549,1.23168.32206,1.84338.49526,1.26078.35698,2.53005.68281,3.79794,1.01328.86141.22455,1.72236.45111,2.57964.69103.34454.09642.72895.15507,1.04705.32196.32482.17041.63055.38605.97985.50571.36431.12479.78978.06649,1.10097.32892Z"/><path d="M1444.64001,1447.75488c-139.66003,138.87-332.13,224.69-544.64001,224.69-54.06,0-106.83002-5.56-157.76001-16.13-1.40997-1.52002-2.38-3.60999-3.03998-6.41998-36.54999-140.27002-73.21002-280.42999-109.96002-420.5,0-.59003-.09998-1.19-.29999-1.79004,0-.38995-.09998-.88995-.29999-1.48999,0-.58997-.10004-1.19-.29999-1.77997v-1.48999l816.29999,224.90997Z"/><path class="cls-3" d="M699.34998,1646.12488c-249.53998-66.94-449.19995-255.72998-531.31-498.67999.66003-2.40997,2.23004-4.59003,4.64001-7.15002,101.52002-101.32996,311.13-311.57996,311.13-311.57996l215.53998,817.40997Z"/><path class="cls-3" d="M1164.16992,572.87488c-.19995.40002-.29993.70007-.29993.89001v1.19995l-812.08002-219.13989c139.94-140.97998,333.88-228.27002,548.21002-228.27002,48.90002,0,96.71997,4.54004,143.09998,13.22998h.01001c.40002.48999.71008.97998.96008,1.45996.3999.98999.69995,1.98999.8999,2.97998,39.53003,142.44995,79.17004,284.80005,118.90002,427.05005.20007.19995.29993.3999.29993.59998Z"/><path d="M1089.96997,996.35486c.59009,2.18005.98999,4.37,1.18994,6.55005,0,2.19-.29993,4.37-.8999,6.56-.59009,2.17999-1.48999,4.16998-2.67993,5.95996-1.19006,1.79004-2.58008,3.38-4.17017,4.77002-8.63989,7.75-17.57983,13.10999-30.3999,12.21997-57.22003-3.27997-107.28003-26.81995-157.35004-51.85999-9.23999-4.46997-9.23999-13.40997-.29999-18.76996,21.46002-12.82001,43.21002-25.33002,64.97003-38.15002,6.26001-3.87,11.62-2.97998,15.5,2.97998,3.57001,5.96002,1.19,11.03003-4.47003,14.60004l-47.69,29.81c.20001.19.5.38995.90002.58997.20001.20001.39996.40002.58997.60004.40002.19995.70001.39996.90002.58997.40002.20001.78998.40002,1.19.60004,34.57001,16.69,70.33002,31.58997,109.07007,36.65997,1.98999.19,4.07996.28998,6.26001.28998,2.18994.20001,4.36987.20001,6.55994,0,2.18005,0,4.37-.09998,6.54993-.28998,1.98999-.20001,4.08008-.40002,6.26001-.59998,7.75-.89001,11.03003-6.85004,7.45007-14.01001-.79004-1.98004-1.79004-4.07001-2.9801-6.26001-.98999-2.17999-2.07983-4.27002-3.27991-6.25-1.19006-1.98999-2.4801-3.97998-3.87-5.96002-1.39001-1.98999-2.78003-3.97998-4.17004-5.95996-28.60999-34.87-64.66998-61.10004-101.91998-85.83002-2.19-1.39001-4.46997-2.78003-6.85999-4.16998-5.96002-3.58002-7.45001-8.65002-4.16998-14.31,3.27997-5.96002,9.23999-6.85004,14.89996-2.98004,10.73004,6.86005,21.46002,14.01001,31.89001,21.16003,4.16998,2.67999,7.75,5.65997,12.21997,8.94,23.53998-19.67004,47.38007-38.73999,62.88007-65.56,3.28003-5.37,7.1499-15.5,4.46997-18.48004-3.88-4.76996-12.82007-7.14996-19.66992-6.84998-25.33008.59003-49.47009,7.73999-73.01007,16.67999-17.29004,6.56-34.37,13.81-51.26001,21.76001-16.69,7.95001-33.08002,16.58997-49.16998,25.92999-16.10004,9.53003-31.79004,19.57001-47.09003,30.09998-15.29999,10.72003-30,22.05005-44.10999,33.97003-16.67999,14.01001-30.98999,30.98999-45.29004,47.38-1.19995,1.39001-2.19,2.88-2.97998,4.46997-1,1.59003-1.89001,3.28003-2.69,5.07001-.78998,1.59003-1.48999,3.28003-2.08002,5.07001-.79999,1.78003-1.38995,3.57001-1.78998,5.35999-2.08997,7.75,2.09003,11.33002,10.13,11.92004,19.07001,1.48999,37.25-2.08002,55.72998-7.15002,9.23999-2.67999,14.90002-.59998,16.39001,6.56,1.48999,8.34003-3.87,11.32001-11.02997,13.40997-22.05005,5.96002-44.10004,11.92004-67.05005,6.85004-10.72998-2.38-20.85999-8.04999-23.83997-20.26001-.79004-2.97998-1.19-5.96002-1.19-8.94,0-2.98999.39996-5.96997,1.19-8.95001.79999-2.97998,1.89001-5.85999,3.27997-8.63995,1.39001-2.58002,3.17999-5.06006,5.36005-7.45001,4.46997-5.36005,7.15997-12.22003,11.32996-17.88.79004-1.19,1.59003-2.38,2.38-3.57001.79999-1.20001,1.59003-2.39001,2.39001-3.58002.98999-.98999,1.97998-1.98999,2.97998-2.97998.79004-1.19,1.67999-2.28998,2.67999-3.28003,13.11005-12.81,26.52002-25.02997,40.23004-38.14996-23.84003-19.96002-47.38-40.23004-62.88-67.35004-1.19-1.97998-2.29004-4.07001-3.28003-6.25-.98999-2.19-1.78998-4.38-2.38-6.56-.79999-2.19-1.38995-4.46997-1.78998-6.85999-.59998-2.38-1-4.76001-1.19-7.15002-1.48999-14,8.64001-24.72998,24.42999-28.31,16.98999-4.16998,33.97998-1.19,50.66998,2.09003,6.25,1.19,12.21002,3.28003,18.17004,4.77002,7.45001,1.48999,11.63,5.65997,9.53998,13.40997-2.08997,7.45001-8.64001,7.73999-15.5,6.54999-13.31-2.77997-26.71997-5.35999-40.22998-7.75-.98999,0-1.89001-.09998-2.67999-.28998h-5.36005c-1,.19-1.88995.28998-2.69.28998-16.67999,1.48999-20.25995,7.75-11.91998,22.35004,15.79999,28.01996,39.64001,48.27997,64.66998,68.25,11.03003-7.75,22.06-14.90002,32.78003-22.65002.40002-.59998.90002-1.19,1.48999-1.78998.40002-.59003.70001-1.29004.90002-2.08002.39996-.79999.58997-1.48999.58997-2.09003.20001-.78998.29999-1.58997.29999-2.37994,2.98004-39.34003,6.86005-78.68005,19.67004-116.52997,1.39001-3.77002,2.97998-7.65015,4.76996-11.62012,1.59003-3.77002,3.28003-7.54993,5.07001-11.31995,1.98004-3.57996,3.97003-7.16003,5.96002-10.72998,2.17999-3.57996,4.46997-7.15002,6.84998-10.7301,11.32001-16.68994,41.42004-14.59985,51.56,6.8501,8.34003,17.88,18.47003,34.87,23.24005,54.54004,1.48999,6.55994,2.08997,12.52002-5.66003,15.49994-6.56,2.38-11.33002-1.48999-14.31-9.84003-4.76001-14-8.94-28.60999-15.48999-41.71997-3.28003-6.56006-10.72998-11.32007-16.09998-16.68994-5.36005,5.36987-11.92004,10.12988-15.49005,16.38989-14.00995,26.53003-19.07001,55.73004-23.53998,85.23004-2.09003,13.71002-2.98999,27.42004-4.77002,43.22003,14-7.75,25.92004-14.60999,37.84003-20.85999,40.52997-21.76001,82.54999-39.94,127.54999-48.88,14.90002-2.98004,29.80994-5.96002,45.29993-1.49005,20.86011,5.96002,29.80005,20.86005,22.95007,41.72003-6.26001,18.17999-18.47998,32.77997-31.58997,46.19-12.21997,12.21997-25.33008,23.54999-35.76001,33.38,16.08997,17.28998,33.38,33.67999,47.97998,52.14996,8.93994,11.33002,14.59998,25.34003,19.96997,38.75Z"/><path d="M951.69,1046.11487c0,1-.09998,1.98999-.29999,2.98004-4.17004,15.5-8.04999,31.29999-14.60004,45.59998-4.17999,9.23999-12.82001,16.98999-20.57001,23.84003-3.87,3.87994-10.42999,4.76996-15.78998,6.85999-13.71002-1.48999-22.04999-9.54004-29.21002-19.37-11.91998-16.40002-17.57996-35.77002-22.34998-55.44-9.52997-35.76001-12.81-72.41003-14.90002-109.07001-.58997-7.45001,4.17004-13.71002,10.13-13.10999,8.05005.59998,10.43005,6.56,10.73004,13.70996,1.48999,36.06,5.07001,71.52002,14.89996,106.39001,1,3.77002,2.09003,7.54999,3.28003,11.32001,1.19,3.77997,2.58002,7.45001,4.16998,11.02997,1.39001,3.77002,2.88,7.45001,4.47003,11.03003,1.58997,3.57001,3.27997,7.15002,5.06995,10.71997,8.05005,14.91003,17.58002,15.20001,25.33002.30005,8.35004-15.49005,13.41003-32.48004,19.37-48.87,3.58002-9.54004,11.62-13.11005,17.29004-6.56006.58997,1,1.19,1.89001,1.78998,2.68005.39001,1,.69,1.98999.89001,2.97998.20001,1,.29999,1.98999.29999,2.97998Z"/><path class="cls-2" d="M1258.64001,913.50488c-58.41003,3.28003-116.22009-9.23999-174.64001-9.84003v.30005c-.29004-4.17004-.59009-6.85004-.89001-11.62,59.01001,6.84998,118.30994,4.16998,175.53003,21.15997Z"/><path class="cls-4" d="M817.28003,742.1449l-9.24005,4.7699c-22.04999-53.04993-54.52997-101.32983-68.83997-157.6499l2.69-1.18994c.78998.98999,1.48999,1.98999,2.07996,2.97998.80005.98999,1.59003,2.07996,2.39001,3.28003.59003.98999,1.29004,2.07983,2.08002,3.2699.59998,1,1.19,2.08997,1.78998,3.28003,22.45001,46.89001,44.80005,93.97998,67.05005,141.26001Z"/><path class="cls-3" d="M1086.68994,673.30493c-25.03992,27.11987-44.40991,59.59998-78.37994,77.47998l-3.27997-2.08008c1.48999-3.87988,1.78998-8.93994,4.16998-11.91992,7.45001-9.54004,15.79999-18.47998,23.84003-27.42004,12.52002-13.10999,25.33997-25.63,37.84998-38.15002.79993-.58997,1.48999-1.18994,2.08997-1.78003.59009-.3999,1.18994-.8999,1.79004-1.48999.79004-.3999,1.48999-.8999,2.07996-1.48999.59998-.3999,1.29004-.8999,2.08997-1.48999l7.75,8.34009Z"/><path class="cls-3" d="M763.18461,755.90121c-.10719,2.06634-.58185,4.09438-1.19,5.96008-8.58905-1.64441-12.06457-8.20309-17.29004-14.01001-1.58997-1.79004-3.16998-3.68005-4.75995-5.66016-1.59003-1.98999-3.08002-3.87988-4.47003-5.65991-11.91998-16.40002-14.15459-20.31638-25.77458-36.99631-2.09003-3.28003-3.58002-6.56006-5.35999-9.84009,5.35999-6.26001,10.12994-6.26001,14.89996,0,16.09003,20.86011,23.08458,29.24631,38.87462,50.40646,2.70271,4.59958,5.40347,10.33979,5.07001,15.79993Z"/><path class="cls-3" d="M1022.32001,1160.55487c-.90002,2.67999-1.48999,6.85999-3.28003,7.75-.79999.60004-1.69.98999-2.67999,1.19-1,0-1.98999-.20001-2.97998-.58997-.79999-.40002-1.48999-1-2.09003-1.79004-.79999-.59998-1.28998-1.39001-1.48999-2.39001-8.33997-26.81995-17.28998-53.63995-25.02997-80.45996-1.79004-6.26001-3.88-15.5,9.52997-18.47998,4.77002,14.00995,9.54004,27.71997,13.41003,41.42999,5.07001,16.69,8.94,33.37,13.70996,49.76996.29999,1.19,1.19,2.38.90002,3.57001Z"/><path class="cls-3" d="M981.78998,556.18481c-8.64996,53.64014-24.95681,87.17227-35.3868,140.81228-8.65002-6.85999-8.94-7.75-7.15997-15.79993,9.23999-35.76001,14.23678-54.38223,24.06679-89.84231,3.28003-12.5199,9.83002-24.14001,14.59998-36.05994l3.88.88989Z"/><path class="cls-4" d="M715.65997,893.23486c-33.96997-3.87-66.45996-15.19-99.53998-23.83997.29999-10.73004,4.47003-12.22003,12.22003-10.42999,25.32996,5.95996,50.95996,10.72998,76.28998,16.98999,6.85999,1.78998,16.09998,4.16998,11.02997,17.27997Z"/><path class="cls-3" d="M815.20001,1070.55487c-31.89001,42.91998-56.63,91.19-95.37,129.04004l-2.38-1.49005c.58997-1.38995,1.19-2.77997,1.78998-4.16998.59003-1.39001,1.29004-2.67999,2.08002-3.87.59998-1.40002,1.28998-2.78998,2.08997-4.17999.79004-1.19,1.49005-2.47998,2.08002-3.87,20.87-30.10004,41.72998-59.90002,62.59003-90,4.76996-6.85999,9.23999-14.01001,14-20.85999q4.46997-6.86005,13.12-.60004Z"/><path class="cls-4" d="M1181.15991,844.36487c-26.22998,2.98004-52.44995,7.15002-78.67993,10.13-5.06006.60004-10.13-.89001-16.38989-1.48999,4.7699-9.23999,9.53992-14.59998,19.06982-15.20001,25.04004-2.08002,49.77002-4.76001,74.51001-7.14996,3.28003-.30005,6.26001,0,8.94006,0,2.38,8.04999,1.79004,12.81995-7.45007,13.70996Z"/><path class="cls-4" d="M1185.03003,685.5249c-10.13,8.05005-19.67004,16.68994-30.1001,24.43994-29.59985,21.06006-59.3999,41.71997-89.3999,61.97998-3.88,2.68005-10.13,1.79004-15.19995,2.68005l-1.19006-3.56995c44.70007-28.91003,84.03992-66.76001,133.80994-88.20996l2.08008,2.67993Z"/><path class="cls-4" d="M706.08007,968.1727c-5.06995,8.94-7.40764,12.09187-17.53765,15.07191-29.79999,8.33997-52.1524,14.89028-81.95239,22.3503-11.92004,2.97998-24.44,3.56995-36.66003,5.06l-.89001-2.68005c1.98004-.98999,3.97003-1.88995,5.96002-2.67999,1.98999-1,4.07001-1.88995,6.26001-2.69,1.97998-.78998,3.96997-1.57996,5.95996-2.38,1.98004-.78998,4.07001-1.48999,6.26001-2.08997,40.53003-11.02002,71.77013-19.23221,112.60009-29.96219Z"/><path class="cls-4" d="M955.56,1249.9649l-2.67999.58997c-2.09003-10.42999-5.07001-20.56-5.96002-30.98999-2.38995-25.02997-4.30218-65.5685-4.89221-69.73849-1.48999-12.52002-3.04493-25.91749,5.89507-36.64747,2.67999,51.25995,13.59718,85.22598,7.63716,136.78598Z"/><path class="cls-4" d="M856.02002,1113.76489c-9.23004,19.66998-18.17004,39.64001-27.71002,59.31-1.48999,3.27997-2.67999,8.33997-8.94,5.96002-6.26001-2.39001-4.77002-6.86005-2.97998-11.03003,7.45001-18.77002,14.59998-37.84998,22.04999-56.62,2.97998-7.45001,7.15002-14.59998,10.72998-22.34998,10.42999,8.93994,11.62,14.29999,6.85004,24.72998Z"/><path class="cls-3" d="M703.73999,830.35486c-42.62-18.76996-87.62-32.47998-125.16998-61.39001l1.20001-2.97998c9.52997,3.58008,19.37,6.26001,28.60999,10.42999,28.79999,13.31,57.51001,27.02002,86.12,41.13,4.16998,2.08002,6.85999,7.45001,9.23999,12.81Z"/><path class="cls-4" d="M1278.01001,997.24487c-24.14001,3.87-104.6001-14.89996-116.82007-28.01001,5.36011-1.48999,9.83008-3.88,13.71008-3.27997,35.45996,5.35999,68.53992,17.58002,103.10999,31.28998Z"/><path class="cls-3" d="M839.63,642.01489l-2.97998,1.48999c-2.68005-2.97998-6.85004-5.37-8.04004-8.93994-5.95996-18.47998-11.91998-36.66003-16.69-55.43005-2.97998-12.22009-4.76996-25.03992-6.85999-37.54993-.19-.80005-.28998-1.48999-.28998-2.09009v-4.46997c0-.59009.09998-1.29004.28998-2.08008l1.48999-.59985c2.98004,6.84985,6.56,13.40991,8.94,20.55994,8.35004,24.14001,16.40002,48.57996,23.85004,73.0199,1.48999,4.76001.28998,10.72009.28998,16.09009Z"/><path class="cls-3" d="M639.66998,923.04486c-3.57996,2.98004-6.56,7.15002-10.72998,8.04004-31.89001,7.14996-64.37,6.56-96.85999,5.95996-.19-1.19-.39001-2.38-.59003-3.57001,1.59003-.59998,3.28003-1.09998,5.06-1.48999,1.59003-.59998,3.28003-1.09998,5.07001-1.48999,1.59003-.59998,3.28003-1.09998,5.07001-1.48999,1.59003-.40002,3.27997-.79999,5.06-1.20001,24.14001-3.87,48.28003-7.14996,72.41998-10.42999.40002-.20001.79999-.29999,1.19-.29999h.90002c.39001,0,.78998.09998,1.19.29999.39996,0,.78998.09998,1.19.29999,3.57996,1.48999,7.45001,3.58002,11.02997,5.37Z"/><path class="cls-3" d="M1168.34009,1135.22485c-11.92017-2.67999-87.91016-75.39996-101.32007-94.16998,5.95996-4.76996,9.82996-2.97998,14.8999,2.08002,19.97009,19.96997,40.83008,39.33997,60.5,59.60999,9.53003,9.83002,17.28003,21.45001,25.92017,32.47998Z"/><path class="cls-3" d="M887.60999,1180.82489c-2.38,26.52002-5.06,53.33997-8.03998,79.85999-.20001,1.20001-.40002,2.39001-.60004,3.58002-.19995,1.19-.48999,2.38-.88995,3.58002-.20001,1.19-.40002,2.37994-.60004,3.56995-.39996,1.19-.78998,2.39001-1.19,3.58002-9.23999-13.40997-5.35999-95.65997,7.45001-109.66998h.29999c1.19,5.07001,3.87,10.42999,3.57001,15.5Z"/><path class="cls-4" d="M689.44,745.4248l-2.09003,3.58008c-5.35999-1.19995-11.02997-1.79004-15.5-4.46997-28.00995-14.91003-52.14996-34.87012-75.38995-57.82007,2.07996,0,4.75995-.88989,5.95996,0,25.03003,14.90002,50.06,29.80005,74.79999,45,5.06006,3.28003,8.34003,9.23999,12.22003,13.70996Z"/><path class="cls-4" d="M708.81,1107.80487c-23.54999,22.65002-47.09003,45-70.92999,67.35004l-2.97998-2.98004c24.72998-30.09998,46.19-63.16998,80.75995-87.31,3.58002,11.92004-2.08997,17.88-6.84998,22.94Z"/><path class="cls-4" d="M1166.84998,1028.23486c-3.27991,9.54004-8.33997,10.14001-14.90002,5.96002-16.38989-10.13-17.90522-9.60756-34.29511-20.03755-2.38-1.48999-3.58008-5.07001-4.77002-8.04999-2.67993-5.96002-5.06006-11.91998-7.75-18.17999l2.08997-1.19,59.62519,41.49751Z"/><path class="cls-4" d="M1123.64001,1204.66486l-2.08997,1.79004c-.79004-.40002-1.58008-.90002-2.38013-1.48999-.78992-.60004-1.58984-1.30005-2.37988-2.09003-.80005-.59998-1.59009-1.19-2.39001-1.78998-.79004-.79004-1.49011-1.48999-2.07996-2.08002-17.29004-21.15997-34.28003-42.02002-50.67004-63.78003-2.9801-4.16998-2.38-10.72998-3.56995-16.08997,4.46997,2.38,9.82983,3.87,13.10986,7.45001,21.76001,22.95001,37.55005,50.35999,52.45007,78.07996Z"/><path class="cls-4" d="M1063.43994,564.53491c-11.02002,33.06995-20.55994,66.75-41.11993,95.95996l-3.88-.8999c-.59003-3.87012-2.08002-8.04004-1.19-11.32007,8.93994-30.1001,23.84009-57.52002,40.53003-84.04004.30005-.59998,1.48999-.8999,2.37988-1.18994l3.28003,1.48999Z"/><path class="cls-3" d="M1237.47998,746.0249v2.67993c-28.90991,15.20007-55.13,35.76007-88.20996,42.32007l-2.97998-4.17999c3.86987-3.87006,7.1499-9.24005,11.91992-11.62006,21.8501-10.53003,44.01001-20.56006,66.45996-30.09998,3.28003-1.48999,8.34009.59998,12.81006.90002Z"/><path class="cls-4" d="M898.34003,658.5847h-18.47003c.59003-10.71997,1.19-22.34998,2.38-34.27002.89001-11.92004,1.78998-23.23999,3.58002-34.56995,0-1.48999.88995-2.97998,2.07996-4.17004.90002-.89001,2.39001-1.48999,4.17004-1.48999,1.48999,0,2.97998.59998,4.17999,1.78992,1.19.89014,1.77997,2.38013,1.77997,3.87012.60004,22.94995.30005,45.8999.30005,68.83997Z"/><path class="cls-3" d="M712.2252,1038.75996l-.29004,2.67999c-17.87994,8.05005-35.46997,16.69-53.34998,24.73999-6.84998,2.98004-8.33997-2.67999-10.13-9.23999,15.5-8.63995,30.70001-17.88,46.79004-25.02997,3.87-1.79004,11.31995,4.46997,16.97998,6.84998Z"/></svg>